<?xml version="1.0" encoding="UTF-8" standalone="no"?> <svg xmlns="http://www.w3.org/2000/svg" viewBox="0 0 64 64"><defs><style>.cls-1{fill:#a0d92a;}.cls-2{fill:#2580a6;}.cls-3{fill:#20557d;}.cls-4{fill:#aebbc4;}.cls-5{fill:#d0dfea;}.cls-6{fill:#fff;}.cls-7{fill:#f1e200;}.cls-8{fill:#c4b800;}.cls-9{fill:#1d9942;}</style></defs><g id="Flat"><path class="cls-1" d="M13.85,42l-8-3,6-1-4-9,5,4,3-3v8l5,8s4-9-1-16-16-8-16-8-3,11,0,18,13,7,13,7Z"/><path class="cls-2" d="M31.22,51,29.5,53.76A2.69,2.69,0,0,0,29.2,56H16.33a4,4,0,0,0,3.87,5H31.85V51Z"/><path class="cls-3" d="M34.5,56a2.54,2.54,0,0,0,.12-.78,2.76,2.76,0,0,0-.42-1.46L32.47,51h-.62V61H43.5a4,4,0,0,0,3.87-5Z"/><path class="cls-4" d="M34.2,31.76A2.77,2.77,0,0,1,31.85,36v8h1v1.38a4,4,0,0,1,3-1.38h2a4,4,0,0,1-4,4h-1v3h-.38l1.73,2.76a2.76,2.76,0,0,1,.42,1.46,2.54,2.54,0,0,1-.12.78H47.37a3.55,3.55,0,0,0-.26-.73L38.85,38V26a2,2,0,0,0,0-4h-7v6Z"/><path class="cls-5" d="M29.5,53.76,31.22,51h-.37V46h-1a4,4,0,0,1-4-4h2a4,4,0,0,1,3.44,2h.56V36a2.77,2.77,0,0,1-2.35-4.24L31.85,28V22h-7a2,2,0,0,0,0,4V38L16.59,55.27a3.55,3.55,0,0,0-.26.73H29.2A2.69,2.69,0,0,1,29.5,53.76Zm-7.76.69L20,53.55l1-2,1.79.9Zm2-4L22,49.55l2-4,1.79.9Z"/><path class="cls-2" d="M29.5,31.76A2.77,2.77,0,0,0,31.85,36V28Z"/><path class="cls-3" d="M34.2,31.76,31.85,28v8A2.77,2.77,0,0,0,34.2,31.76Z"/><polygon class="cls-5" points="40.14 12.71 38.64 11.21 32.85 17 31.85 17 31.85 18 34.85 18 40.14 12.71"/><path class="cls-3" d="M43.85,8,41.06,10.8l1.5,1.5L45.85,9a3.54,3.54,0,0,0,0-5,3.47,3.47,0,0,0-2-1A3.53,3.53,0,0,1,43.85,8Z"/><polygon class="cls-6" points="38.64 11.21 37.14 9.71 31.85 15 31.85 17 32.85 17 38.64 11.21"/><path class="cls-2" d="M43.85,8a3.53,3.53,0,0,0,0-5,3.48,3.48,0,0,0-3,1L37.56,7.3l3.5,3.5Z"/><path class="cls-1" d="M45.85,34c-6,5-3,12-3,12l4-4,2-6,1,3,7-3-10,11a7.94,7.94,0,0,0,9-1c6-5,5-14,5-14S51.85,29,45.85,34Z"/><path class="cls-7" d="M33.85,48a4,4,0,0,0,4-4h-2a4,4,0,0,0-3,1.38V48Z"/><path class="cls-7" d="M31.29,44a4,4,0,0,0-3.44-2h-2a4,4,0,0,0,4,4h1V44Z"/><path class="cls-8" d="M19.85,11a4.94,4.94,0,0,1-2.38-.63,5,5,0,1,0,6.75-6.74A4.87,4.87,0,0,1,24.85,6,5,5,0,0,1,19.85,11Z"/><path class="cls-7" d="M19.85,11a5,5,0,0,0,5-5,4.87,4.87,0,0,0-.63-2.37A4.9,4.9,0,0,0,21.85,3a5,5,0,0,0-4.38,7.37A4.94,4.94,0,0,0,19.85,11Zm-1-4h2V9h-2Z"/><path class="cls-8" d="M48.85,23a3,3,0,0,1-.86-.14,3,3,0,1,0,3.72-3.72,3,3,0,0,1,.14.86A3,3,0,0,1,48.85,23Z"/><path class="cls-7" d="M48.85,23a3,3,0,0,0,3-3,3,3,0,0,0-.14-.86,3,3,0,0,0-.86-.14,3,3,0,0,0-3,3,3,3,0,0,0,.14.86A3,3,0,0,0,48.85,23Z"/><polygon class="cls-7" points="40.14 12.71 42.14 14.71 43.56 13.29 42.56 12.3 41.06 10.8 37.56 7.3 36.56 6.29 35.14 7.71 37.14 9.71 38.64 11.21 40.14 12.71"/><polygon class="cls-9" points="32.85 48 32.85 45.38 32.85 44 31.85 44 31.3 44 30.85 44 30.85 46 30.85 51 31.22 51 31.85 51 32.47 51 32.85 51 32.85 48"/><rect class="cls-6" x="21.61" y="47" width="4.47" height="2" transform="translate(-29.75 47.87) rotate(-63.43)"/><rect class="cls-6" x="20.23" y="52" width="2.24" height="2" transform="translate(-35.6 48.39) rotate(-63.43)"/><polygon class="cls-7" points="59.85 4 59.85 2 57.85 2 57.85 4 55.85 4 55.85 6 57.85 6 57.85 8 59.85 8 59.85 6 61.85 6 61.85 4 59.85 4"/><rect class="cls-6" x="18.85" y="7" width="2" height="2"/><polygon class="cls-7" points="6.85 14 8.85 14 8.85 12 10.85 12 10.85 10 8.85 10 8.85 8 6.85 8 6.85 10 4.85 10 4.85 12 6.85 12 6.85 14"/></g></svg>