<?xml version="1.0" encoding="iso-8859-1"?>
<!-- Generator: Adobe Illustrator 16.0.0, SVG Export Plug-In . SVG Version: 6.00 Build 0)  -->
<!DOCTYPE svg PUBLIC "-//W3C//DTD SVG 1.1//EN" "http://www.w3.org/Graphics/SVG/1.1/DTD/svg11.dtd">
<svg version="1.1" xmlns="http://www.w3.org/2000/svg" xmlns:xlink="http://www.w3.org/1999/xlink" x="0px" y="0px" width="512px"
	 height="512px" viewBox="0 0 512 512" style="enable-background:new 0 0 512 512;" xml:space="preserve">
<g id="_x32_5_-_sun_x2C__Brightness_x2C__light_x2C__spring">
	<g>
		<g>
			<path style="fill:#FCD884;" d="M132.46,364.87l-79.98,8.64l47.38-64.819C106.95,329.6,118.14,348.64,132.46,364.87z"/>
			<path style="fill:#FCD884;" d="M288.44,417.58L256,491l-32.44-73.42c10.5,2.11,21.34,3.22,32.44,3.22
				C267.1,420.8,277.94,419.69,288.44,417.58z"/>
			<path style="fill:#FCD884;" d="M412.15,308.68l47.369,64.83l-79.97-8.64C393.87,348.64,405.06,329.59,412.15,308.68z"/>
			<path style="fill:#FCD884;" d="M459.52,138.51l-47.369,64.82c-7.091-20.92-18.29-39.97-32.61-56.19L459.52,138.51z"/>
			<path style="fill:#FCD884;" d="M256,21l32.44,73.42C277.94,92.31,267.1,91.2,256,91.2c-11.1,0-21.94,1.11-32.44,3.22L256,21z"/>
			<path style="fill:#FCD884;" d="M52.48,138.51l79.99,8.63c-14.32,16.22-25.52,35.26-32.61,56.17L52.48,138.51z"/>
			<path style="fill:#EABF6A;" d="M94.42,288.44L21,256l73.42-32.44c-2.11,10.5-3.22,21.34-3.22,32.44
				C91.2,267.1,92.31,277.94,94.42,288.44z"/>
			<path style="fill:#EABF6A;" d="M147.14,379.54c16.22,14.32,35.27,25.52,56.19,32.61l-64.82,47.369L147.14,379.54z"/>
			<path style="fill:#EABF6A;" d="M364.87,379.55l8.64,79.97l-64.83-47.369C329.59,405.06,348.64,393.87,364.87,379.55z"/>
			<path style="fill:#EABF6A;" d="M491,256l-73.42,32.44c2.11-10.5,3.22-21.341,3.22-32.44c0-11.1-1.109-21.94-3.22-32.44L491,256z"
				/>
			<path style="fill:#EABF6A;" d="M373.51,52.48l-8.64,79.98c-16.23-14.32-35.271-25.51-56.18-32.6L373.51,52.48z"/>
			<path style="fill:#EABF6A;" d="M203.31,99.86c-20.91,7.09-39.95,18.29-56.17,32.61l-8.63-79.99L203.31,99.86z"/>
			<path style="fill:#FEBE76;" d="M412.15,203.33c2.22,6.57,4.04,13.32,5.43,20.23c2.11,10.5,3.22,21.34,3.22,32.44
				c0,11.1-1.109,21.94-3.22,32.44c-1.39,6.909-3.2,13.67-5.43,20.239c-7.091,20.91-18.28,39.96-32.601,56.19
				c-4.59,5.189-9.49,10.09-14.68,14.68c-16.23,14.32-35.28,25.51-56.19,32.601c-6.569,2.229-13.33,4.04-20.239,5.43
				c-10.5,2.11-21.341,3.22-32.44,3.22c-11.1,0-21.94-1.109-32.44-3.22c-6.91-1.39-13.66-3.21-20.23-5.43
				c-20.92-7.091-39.97-18.29-56.19-32.61c-5.2-4.58-10.1-9.48-14.68-14.67c-14.32-16.23-25.51-35.271-32.6-56.18
				c-2.23-6.58-4.05-13.341-5.44-20.25C92.31,277.94,91.2,267.1,91.2,256c0-11.1,1.11-21.94,3.22-32.44
				c1.39-6.91,3.21-13.67,5.44-20.25c7.09-20.91,18.29-39.95,32.61-56.17c4.58-5.19,9.48-10.09,14.67-14.67
				c16.22-14.32,35.26-25.52,56.17-32.61c6.58-2.23,13.34-4.05,20.25-5.44c10.5-2.11,21.34-3.22,32.44-3.22
				c11.1,0,21.94,1.11,32.44,3.22c6.909,1.39,13.67,3.21,20.25,5.44c20.909,7.09,39.949,18.28,56.18,32.6
				c5.189,4.58,10.09,9.48,14.67,14.68C393.86,163.36,405.06,182.41,412.15,203.33z M370.8,256c0-63.22-51.56-114.8-114.8-114.8
				c-63.22,0-114.8,51.58-114.8,114.8c0,63.24,51.58,114.8,114.8,114.8C319.24,370.8,370.8,319.24,370.8,256z"/>
			<path style="fill:#FCD884;" d="M256,141.2c63.24,0,114.8,51.58,114.8,114.8c0,63.24-51.56,114.8-114.8,114.8
				c-63.22,0-114.8-51.56-114.8-114.8C141.2,192.78,192.78,141.2,256,141.2z"/>
			<path style="fill:#EABF6A;" d="M330.8,264c-4.418,0-8-3.582-8-8c0-36.833-29.966-66.8-66.8-66.8c-4.418,0-8-3.582-8-8
				s3.582-8,8-8c45.656,0,82.8,37.144,82.8,82.8C338.8,260.418,335.218,264,330.8,264z"/>
		</g>
	</g>
</g>
<g id="Layer_1">
</g>
</svg>
