<?xml version="1.0" encoding="iso-8859-1"?>
<!-- Generator: Adobe Illustrator 16.0.0, SVG Export Plug-In . SVG Version: 6.00 Build 0)  -->
<!DOCTYPE svg PUBLIC "-//W3C//DTD SVG 1.1//EN" "http://www.w3.org/Graphics/SVG/1.1/DTD/svg11.dtd">
<svg version="1.1" xmlns="http://www.w3.org/2000/svg" xmlns:xlink="http://www.w3.org/1999/xlink" x="0px" y="0px" width="520px"
	 height="520px" viewBox="0 0 520 520" style="enable-background:new 0 0 520 520;" xml:space="preserve">
<g id="_x34_27_x2C__Audio_x2C__Speaker_x2C__Volume">
	<g>
		<path style="fill:#95E6F9;" d="M430.52,173c47.291,55.88,47.291,138.13,0,194c-4.41,5.21-12.35,5.51-17.18,0.68l-0.24-0.239
			c-4.33-4.32-4.55-11.221-0.6-15.891c39.67-47.01,39.67-116.09,0-163.1c-3.95-4.67-3.73-11.57,0.6-15.89l0.24-0.24
			C418.17,167.49,426.109,167.79,430.52,173z"/>
		<path style="fill:#95E6F9;" d="M397.109,207.18c28.541,36.9,28.541,88.74,0,125.64c-4.31,5.58-12.539,6.09-17.52,1.109
			l-0.25-0.239c-4.14-4.15-4.59-10.74-1.01-15.391c21.93-28.37,21.93-68.23,0.01-96.6c-3.59-4.64-3.14-11.24,1-15.39l0.25-0.24
			C384.57,201.09,392.8,201.6,397.109,207.18z"/>
		<path style="fill:#95E6F9;" d="M363.85,242.68c9.59,16.89,9.59,37.75,0,54.64c-3.8,6.699-12.97,7.899-18.42,2.449l-0.25-0.25
			c-3.68-3.67-4.56-9.369-1.99-13.89c5.49-9.66,5.49-21.6,0-31.26c-2.569-4.52-1.689-10.22,1.99-13.89l0.25-0.25
			C350.88,234.78,360.04,235.98,363.85,242.68z"/>
		<circle style="fill:#FF5987;" cx="407.5" cy="87.5" r="30"/>
		<path style="fill:#FF5987;" d="M117.5,412.5c13.81,0,25,11.19,25,25s-11.19,25-25,25s-25-11.19-25-25S103.69,412.5,117.5,412.5z"
			/>
		<path style="fill:#F06000;" d="M132.5,192.5c0,24.378,0,89.475,0,155h30c0-65.955,0-131.472,0-155H132.5z"/>
		<path style="fill:#F88F19;" d="M67.5,192.5c0,24.378,0,89.475,0,155h65c0-65.955,0-131.472,0-155H67.5z"/>
		<path style="fill:#FFCC66;" d="M307.5,112.5v315l-145-80c0-65.955,0-131.472,0-155L307.5,112.5z"/>
		<circle cx="470" cy="150" r="7.5"/>
		<circle cx="450" cy="397.5" r="7.5"/>
		<circle cx="365" cy="455" r="7.5"/>
		<circle cx="225" cy="435" r="7.5"/>
		<circle cx="220" cy="60" r="7.5"/>
		<circle cx="87.5" cy="120" r="7.5"/>
		<circle cx="50" cy="375" r="7.5"/>
		<path d="M353.705,308.203c-4.457,0-8.652-1.739-11.811-4.898l-0.25-0.25c-5.301-5.286-6.455-13.47-2.801-19.896
			c4.612-8.117,4.612-18.201-0.001-26.318c-3.653-6.426-2.499-14.61,2.807-19.901l0.245-0.245c3.158-3.158,7.352-4.898,11.808-4.898
			c5.989,0,11.544,3.223,14.494,8.412c10.435,18.377,10.435,41.206,0.002,59.581C365.254,304.979,359.701,308.203,353.705,308.203z
			 M353.702,241.796c-1.784,0-3.467,0.699-4.736,1.969l-0.25,0.25c-2.13,2.123-2.612,5.363-1.179,7.883
			c6.346,11.166,6.346,25.037,0,36.202c-1.434,2.521-0.95,5.761,1.174,7.879l0.255,0.255c1.27,1.27,2.953,1.969,4.739,1.969
			c2.439,0,4.605-1.252,5.796-3.35c8.704-15.331,8.704-34.376,0.001-49.705C358.309,243.051,356.141,241.796,353.702,241.796z"/>
		<path d="M387.861,342.358c-4.439,0-8.614-1.723-11.765-4.851l-0.214-0.205c-0.027-0.026-0.056-0.054-0.083-0.081
			c-5.903-5.919-6.519-15.364-1.432-21.972c20.595-26.644,20.599-63.853,0.015-90.493c-5.105-6.6-4.497-16.049,1.417-21.979
			c0.024-0.025,0.05-0.05,0.075-0.074l0.25-0.24c3.084-3.085,7.277-4.823,11.735-4.823c5.211,0,10.024,2.363,13.206,6.482
			c29.999,38.786,29.999,92.967-0.002,131.755C397.885,339.996,393.072,342.358,387.861,342.358z M382.845,330.124l0.202,0.193
			c0.026,0.025,0.053,0.051,0.078,0.077c1.268,1.267,2.949,1.964,4.736,1.964c2.089,0,4.018-0.945,5.291-2.595
			c27.217-35.189,27.217-84.338,0.002-119.524c-1.275-1.652-3.204-2.598-5.294-2.598c-1.787,0-3.469,0.697-4.735,1.964l-0.273,0.264
			c-2.348,2.381-2.589,6.145-0.557,8.771c23.367,30.243,23.363,72.481-0.009,102.717
			C380.266,323.981,380.506,327.744,382.845,330.124z"/>
		<path d="M421.628,376.114c-4.466,0-8.665-1.74-11.823-4.899l-0.236-0.235c-6.199-6.186-6.58-15.927-0.886-22.659
			c38.295-45.38,38.295-111.261-0.004-156.646c-5.69-6.729-5.31-16.469,0.89-22.654l0.232-0.232
			c3.162-3.163,7.361-4.902,11.826-4.902c4.912,0,9.545,2.145,12.709,5.883c23.635,27.928,36.652,63.525,36.652,100.234
			s-13.018,72.304-36.652,100.227C431.172,373.97,426.539,376.114,421.628,376.114z M421.627,173.886
			c-1.794,0-3.481,0.699-4.752,1.969l-0.235,0.236c-2.491,2.484-2.626,6.406-0.322,9.129c19.95,23.641,30.935,53.748,30.935,84.779
			c0,31.031-10.984,61.138-30.931,84.774c-2.308,2.728-2.173,6.649,0.311,9.127l0.24,0.239c1.273,1.273,2.962,1.974,4.756,1.974
			c1.965,0,3.814-0.854,5.075-2.345c45.986-54.329,45.986-133.201,0-187.54C425.442,174.741,423.592,173.886,421.627,173.886z"/>
		<path d="M67.5,237.5c-2.761,0-5-2.239-5-5v-40c0-2.761,2.239-5,5-5h95c2.761,0,5,2.239,5,5s-2.239,5-5,5h-90v35
			C72.5,235.261,70.261,237.5,67.5,237.5z"/>
		<path d="M162.5,352.5h-95c-2.761,0-5-2.238-5-5v-40c0-2.762,2.239-5,5-5s5,2.238,5,5v35h90c2.761,0,5,2.238,5,5
			S165.261,352.5,162.5,352.5z"/>
		<path d="M307.5,432.5c-0.831,0-1.663-0.207-2.416-0.622l-145-80c-1.594-0.88-2.584-2.557-2.584-4.378v-40c0-2.762,2.239-5,5-5
			s5,2.238,5,5v37.048l135,74.483V120.969l-135,74.482V232.5c0,2.761-2.239,5-5,5s-5-2.239-5-5v-40c0-1.821,0.99-3.498,2.584-4.378
			l145-80c1.55-0.854,3.436-0.826,4.958,0.072c1.523,0.899,2.458,2.537,2.458,4.306v315c0,1.769-0.935,3.406-2.458,4.306
			C309.259,432.268,308.379,432.5,307.5,432.5z"/>
		<path d="M277.5,377.5c-2.762,0-5-2.238-5-5v-205c0-2.761,2.238-5,5-5s5,2.239,5,5v205C282.5,375.262,280.262,377.5,277.5,377.5z"
			/>
		<path d="M252.5,342.5c-2.761,0-5-2.238-5-5v-135c0-2.761,2.239-5,5-5s5,2.239,5,5v135C257.5,340.262,255.261,342.5,252.5,342.5z"
			/>
		<path d="M162.5,312.5h-95c-2.761,0-5-2.238-5-5v-75c0-2.761,2.239-5,5-5h95c2.761,0,5,2.239,5,5v75
			C167.5,310.262,165.261,312.5,162.5,312.5z M72.5,302.5h85v-65h-85V302.5z"/>
		<path d="M132.5,352.5c-2.761,0-5-2.238-5-5v-155c0-2.761,2.239-5,5-5s5,2.239,5,5v155C137.5,350.262,135.261,352.5,132.5,352.5z"
			/>
		<path d="M117.5,467.5c-16.542,0-30-13.458-30-30s13.458-30,30-30s30,13.458,30,30S134.042,467.5,117.5,467.5z M117.5,417.5
			c-11.028,0-20,8.972-20,20s8.972,20,20,20s20-8.972,20-20S128.528,417.5,117.5,417.5z"/>
		<path d="M407.5,122.5c-19.299,0-35-15.701-35-35s15.701-35,35-35s35,15.701,35,35S426.799,122.5,407.5,122.5z M407.5,62.5
			c-13.785,0-25,11.215-25,25s11.215,25,25,25s25-11.215,25-25S421.285,62.5,407.5,62.5z"/>
	</g>
</g>
<g id="Layer_1">
</g>
</svg>
