<?xml version="1.0" encoding="UTF-8" standalone="no"?>
<!DOCTYPE svg PUBLIC "-//W3C//DTD SVG 1.1//EN" "http://www.w3.org/Graphics/SVG/1.1/DTD/svg11.dtd">
<svg width="100%" height="100%" viewBox="0 0 500 500" version="1.1" xmlns="http://www.w3.org/2000/svg" xmlns:xlink="http://www.w3.org/1999/xlink" xml:space="preserve" xmlns:serif="http://www.serif.com/" style="fill-rule:evenodd;clip-rule:evenodd;stroke-linejoin:round;stroke-miterlimit:2;">
    <g id="Audio-on" serif:id="Audio on" transform="matrix(1,0,0,1,-3.80678,-0.924101)">
        <path d="M320.661,49.169C320.661,46.504 319.247,44.04 316.947,42.695C314.647,41.35 311.806,41.326 309.484,42.632C273.448,62.902 161.379,125.941 139.236,138.397C136.874,139.725 135.413,142.224 135.413,144.933L135.413,356.915C135.413,359.624 136.874,362.123 139.236,363.452C161.379,375.907 273.448,438.946 309.484,459.216C311.806,460.523 314.647,460.499 316.947,459.153C319.247,457.808 320.661,455.344 320.661,452.679L320.661,49.169ZM395.861,142.758C424.207,179.443 439.037,215.803 439.199,251.982C439.36,287.983 424.936,323.546 396.083,358.811C391.606,364.284 392.414,372.363 397.887,376.841C403.36,381.318 411.439,380.51 415.917,375.037C449.107,334.469 465.009,293.282 464.824,251.867C464.639,210.629 448.448,168.905 416.139,127.09C411.815,121.495 403.762,120.462 398.166,124.785C392.571,129.109 391.538,137.162 395.861,142.758ZM113.8,148.047C113.8,146.058 113.01,144.15 111.604,142.744C110.197,141.337 108.289,140.547 106.3,140.547L50.288,140.547C48.299,140.547 46.392,141.337 44.985,142.744C43.579,144.15 42.788,146.058 42.788,148.047L42.788,353.801C42.788,355.79 43.579,357.698 44.985,359.104C46.392,360.511 48.299,361.301 50.288,361.301L106.3,361.301C108.289,361.301 110.197,360.511 111.604,359.104C113.01,357.698 113.8,355.79 113.8,353.801L113.8,148.047ZM348.057,192.589C375.819,238.172 375.755,276.239 349.213,307.656C344.649,313.057 345.33,321.148 350.731,325.711C356.133,330.275 364.224,329.594 368.787,324.193C402.218,284.622 404.91,236.673 369.943,179.259C366.264,173.22 358.375,171.303 352.335,174.981C346.296,178.66 344.379,186.549 348.057,192.589Z" style="fill:url(#_Linear1);"/>
    </g>
    <defs>
        <linearGradient id="_Linear1" x1="0" y1="0" x2="1" y2="0" gradientUnits="userSpaceOnUse" gradientTransform="matrix(500,-500,500,500,3.80678,500.924)"><stop offset="0" style="stop-color:rgb(44,180,226);stop-opacity:1"/><stop offset="1" style="stop-color:rgb(58,227,138);stop-opacity:1"/></linearGradient>
    </defs>
</svg>
