<?xml version="1.0" encoding="UTF-8" standalone="no"?>
<svg
   xmlns:dc="http://purl.org/dc/elements/1.1/"
   xmlns:cc="http://creativecommons.org/ns#"
   xmlns:rdf="http://www.w3.org/1999/02/22-rdf-syntax-ns#"
   xmlns:svg="http://www.w3.org/2000/svg"
   xmlns="http://www.w3.org/2000/svg"
   xmlns:sodipodi="http://sodipodi.sourceforge.net/DTD/sodipodi-0.dtd"
   xmlns:inkscape="http://www.inkscape.org/namespaces/inkscape"
   width="64"
   height="64"
   viewBox="0 0 16.933333 16.933334"
   version="1.1"
   id="svg8"
   inkscape:version="0.92.3 (2405546, 2018-03-11)"
   sodipodi:docname="22-Writing.svg"
   inkscape:export-filename="/home/wanzabuyumna/@WANZ_DESIGN/NICON STUDIO MAGANG/Style Line/Style Line/Icon 8/Icon 8.png"
   inkscape:export-xdpi="96"
   inkscape:export-ydpi="96">
  <defs
     id="defs2" />
  <sodipodi:namedview
     id="base"
     pagecolor="#ffffff"
     bordercolor="#959595"
     borderopacity="1"
     inkscape:pageopacity="0"
     inkscape:pageshadow="2"
     inkscape:zoom="5.6568543"
     inkscape:cx="32.72946"
     inkscape:cy="21.830685"
     inkscape:document-units="px"
     inkscape:current-layer="layer1"
     inkscape:document-rotation="0"
     showgrid="false"
     units="px"
     inkscape:window-width="1920"
     inkscape:window-height="1040"
     inkscape:window-x="0"
     inkscape:window-y="0"
     inkscape:window-maximized="1"
     inkscape:pagecheckerboard="0" />
  <metadata
     id="metadata5">
    <rdf:RDF>
      <cc:Work
         rdf:about="">
        <dc:format>image/svg+xml</dc:format>
        <dc:type
           rdf:resource="http://purl.org/dc/dcmitype/StillImage" />
      </cc:Work>
    </rdf:RDF>
  </metadata>
  <g
     inkscape:label="22-Writing"
     inkscape:groupmode="layer"
     id="layer1">
    <path
       style="color:#000000;font-style:normal;font-variant:normal;font-weight:normal;font-stretch:normal;font-size:medium;line-height:normal;font-family:sans-serif;font-variant-ligatures:normal;font-variant-position:normal;font-variant-caps:normal;font-variant-numeric:normal;font-variant-alternates:normal;font-feature-settings:normal;text-indent:0;text-align:start;text-decoration:none;text-decoration-line:none;text-decoration-style:solid;text-decoration-color:#000000;letter-spacing:normal;word-spacing:normal;text-transform:none;writing-mode:lr-tb;direction:ltr;text-orientation:mixed;dominant-baseline:auto;baseline-shift:baseline;text-anchor:start;white-space:normal;shape-padding:0;clip-rule:nonzero;display:inline;overflow:visible;visibility:visible;opacity:1;isolation:auto;mix-blend-mode:normal;color-interpolation:sRGB;color-interpolation-filters:linearRGB;solid-color:#000000;solid-opacity:1;vector-effect:none;fill:#000000;fill-opacity:1;fill-rule:nonzero;stroke:none;stroke-width:1.99994171;stroke-linecap:round;stroke-linejoin:round;stroke-miterlimit:4;stroke-dasharray:none;stroke-dashoffset:0;stroke-opacity:1;color-rendering:auto;image-rendering:auto;shape-rendering:auto;text-rendering:auto;enable-background:accumulate"
       d="M 16.347656 0 C 16.321351 0.0017763779 16.296807 0.0040329348 16.271484 0.0078125 C 14.557317 0.11363927 12.870809 0.51259084 11.298828 1.1933594 C 4.5240625 4.1272554 1.0329863 12.035631 4.1523438 18.744141 C 6.908489 24.671612 14.253706 27.718877 20.460938 24.927734 C 25.874846 22.493264 28.657682 16.090892 26.037109 10.707031 C 23.78761 6.085538 17.96124 3.7271389 13.095703 6.0429688 C 9.0024748 7.9912396 6.9211464 12.932692 9.0664062 17.03125 C 10.824453 20.39004 15.179757 22.098362 18.748047 20.228516 C 21.570636 18.749473 22.994762 15.190991 21.283203 12.330078 C 19.995631 10.177901 17.011607 9.0875794 14.6875 10.574219 C 13.876829 11.09277 13.295203 11.886499 13.050781 12.791016 C 12.806246 13.695533 12.938489 14.765871 13.636719 15.601562 C 14.487415 16.649361 16.092047 15.380817 15.212891 14.355469 C 14.950213 14.041012 14.904885 13.697301 15.015625 13.287109 C 15.126365 12.876955 15.433461 12.452476 15.798828 12.21875 C 17.042935 11.42297 18.780031 12.068357 19.53125 13.324219 C 20.614651 15.135104 19.657987 17.507659 17.779297 18.492188 C 15.287417 19.797976 12.139844 18.558614 10.871094 16.134766 C 9.2731473 13.081852 10.867084 9.2995807 13.986328 7.8144531 C 17.779386 6.0090862 22.417348 7.8878777 24.201172 11.552734 C 26.314305 15.894089 24.038226 21.153639 19.615234 23.142578 C 14.477949 25.452625 8.3087381 22.892208 6.0039062 17.935547 C 3.368366 12.267465 6.348923 5.4957977 12.121094 2.9960938 C 13.469289 2.4122322 14.927232 2.0638185 16.402344 1.9726562 C 17.740788 1.9254122 17.686705 -0.023357518 16.347656 0 z M 62.923828 0.00390625 C 62.767356 0.01526373 62.615096 0.063649361 62.480469 0.14453125 C 51.590252 6.4753912 47.585222 12.351577 47.265625 18.095703 C 46.945877 23.78461 50.321096 28.986774 53.001953 33.611328 C 55.785348 38.41273 58.094408 42.584237 56.841797 47.251953 C 55.533362 51.754315 50.490772 56.623599 37.601562 62.076172 C 36.391471 62.622692 37.168903 64.409521 38.382812 63.914062 C 51.495392 58.367001 57.201996 53.174806 58.759766 47.814453 C 60.317536 42.4541 57.525247 37.375576 54.699219 32.544922 C 51.87319 27.71427 48.985951 23.046225 49.257812 18.207031 C 49.529561 13.367837 52.928344 8.0255141 63.484375 1.8789062 C 64.414555 1.3724495 64.001712 -0.085611897 62.923828 0.00390625 z M 40.003906 6 C 38.33532 6 37 7.3589803 37 9.0039062 C 37 10.64887 38.339251 12 40.003906 12 C 41.668561 12 43 10.64887 43 9.0039062 C 43 7.3589803 41.672454 6 40.003906 6 z M 58.025391 16.490234 C 57.119211 16.467557 56.654482 17.567635 57.300781 18.203125 L 58.091797 18.996094 L 57.296875 19.791016 C 56.351502 20.736314 57.769471 22.154244 58.714844 21.208984 L 59.505859 20.414062 L 60.298828 21.208984 C 61.244201 22.154244 62.66217 20.736314 61.716797 19.791016 L 60.919922 18.996094 L 61.710938 18.203125 C 62.356481 17.568316 61.893516 16.470882 60.988281 16.490234 C 60.728628 16.497831 60.481934 16.606638 60.300781 16.792969 L 59.505859 17.585938 L 58.710938 16.792969 C 58.530276 16.607016 58.284515 16.498549 58.025391 16.490234 z M 33 21.001953 C 31.355187 21.001953 30.003906 22.322167 30.003906 23.998047 L 30.003906 30.179688 C 28.561789 30.441987 26.937846 31.198232 25.5 32.044922 C 24.072133 32.885791 22.663207 33.912236 21.472656 34.984375 L 1.0507812 34 C -0.28395883 33.93613 -0.37973765 35.938155 0.95507812 36.001953 L 20.050781 36.919922 C 20.160388 37.645928 21.120261 38.189688 21.785156 37.470703 C 22.971247 36.196173 24.753785 34.8183 26.511719 33.771484 C 28.412896 32.639328 30.066054 32.074219 31.003906 32.074219 C 31.140347 32.100675 31.149004 32.100573 31.414062 32.199219 C 31.679009 32.29749 32.029131 32.451713 32.417969 32.642578 C 33.195607 33.024424 34.138779 33.547164 35.039062 34.074219 C 36.839668 35.128367 38.478516 36.193359 38.478516 36.193359 C 38.998881 36.518399 39.1516 37.14765 38.884766 37.582031 C 38.744923 37.824303 38.57149 37.915765 38.333984 37.972656 C 38.080756 38.029349 37.730889 38.002936 37.349609 37.869141 L 32.34375 36.134766 C 31.892626 35.980183 31.396174 36.165022 31.15625 36.578125 C 31.15625 36.578125 29.432736 39.405955 26.763672 40.111328 C 25.454859 40.439391 25.972711 42.403864 27.273438 42.044922 C 28.3774 41.753142 29.302955 41.224814 30.003906 40.708984 L 30.003906 53.996094 L 27.552734 53.996094 C 25.763658 53.996094 23.313456 53.117744 21.837891 51.730469 C 21.642867 51.541492 21.379019 51.43977 21.107422 51.449219 C 20.248487 51.479455 19.824203 52.506016 20.412109 53.132812 L 0.95898438 53.996094 C -0.36366138 54.064125 -0.26930774 56.052069 1.046875 55.996094 L 23.244141 55.011719 C 24.650919 55.651215 26.163909 55.996094 27.552734 55.996094 L 30.003906 55.996094 L 30.003906 57.998047 C 30.002806 58.179842 30.051551 58.357502 30.144531 58.513672 L 33.148438 63.511719 C 33.543964 64.167164 34.472377 64.156242 34.861328 63.511719 L 37.857422 58.513672 C 37.952666 58.357955 38.004726 58.180674 38.005859 57.998047 L 38.005859 56.003906 L 41 56.003906 C 42.644888 56.003906 44.003906 54.664856 44.003906 52.998047 C 44.003906 52.222374 43.720877 51.527521 43.240234 50.998047 C 43.72031 50.466381 44.003906 49.769435 44.003906 48.994141 C 44.003906 48.219489 43.721658 47.525379 43.242188 46.996094 C 43.721205 46.464654 44.003906 45.768415 44.003906 44.994141 C 44.003906 44.219451 43.721658 43.525379 43.242188 42.996094 C 43.721205 42.464654 44.003906 41.770368 44.003906 40.996094 C 44.003906 39.329247 42.644888 38 41 38 L 40.875 38 C 41.287989 36.697004 40.739406 35.253008 39.556641 34.503906 C 39.417554 34.415465 38.803718 34.027061 38.005859 33.535156 L 38.005859 23.998047 C 38.005859 22.353386 36.681953 21.001953 35.001953 21.001953 L 33 21.001953 z M 33 23.001953 L 35.001953 23.001953 C 35.573304 23.001953 36.005859 23.454135 36.005859 23.998047 L 36.005859 25.998047 L 32.003906 25.998047 L 32.003906 23.998047 C 32.003906 23.454097 32.428686 23.001953 33 23.001953 z M 37.007812 39.998047 L 41 39.998047 C 41.571389 39.998009 42.003906 40.45038 42.003906 40.994141 C 42.003906 41.537863 41.571389 41.998047 41 41.998047 L 37.007812 41.998047 C 36.436385 41.998047 36.003906 41.537863 36.003906 40.994141 C 36.003906 40.45038 36.436385 39.998009 37.007812 39.998047 z M 51.005859 40.998047 C 49.337311 40.998047 48 42.356989 48 44.001953 C 48 45.646917 49.341204 46.998047 51.005859 46.998047 C 52.670514 46.998047 54.003906 45.646917 54.003906 44.001953 C 54.003906 42.356989 52.674407 40.998047 51.005859 40.998047 z M 37.005859 44 L 41.001953 44 C 41.573115 44.003398 42.003906 44.452421 42.003906 44.994141 C 42.003906 45.537863 41.571389 45.998047 41 45.998047 L 37.007812 45.998047 C 36.436385 45.998047 36.003906 45.537863 36.003906 44.994141 C 36.003906 44.452421 36.434697 44.003402 37.005859 44 z M 37.005859 48 L 41.001953 48 C 41.573115 48.003398 42.003906 48.452459 42.003906 48.994141 C 42.003906 49.537901 41.571389 49.998047 41 49.998047 L 37.007812 49.998047 C 36.436385 49.998047 36.003906 49.537901 36.003906 48.994141 C 36.003906 48.452459 36.434697 48.003402 37.005859 48 z M 37.007812 52.001953 L 41 52.001953 C 41.571351 52.001953 42.003906 52.454286 42.003906 52.998047 C 42.003906 53.54177 41.571389 54.001953 41 54.001953 L 37.007812 54.001953 C 36.436385 54.001953 36.003906 53.54177 36.003906 52.998047 C 36.003906 52.454286 36.436385 52.001953 37.007812 52.001953 z M 21.021484 56.992188 C 20.116229 56.97329 19.651558 58.069966 20.296875 58.705078 L 21.089844 59.498047 L 20.292969 60.292969 C 19.348012 61.237813 20.764026 62.653828 21.708984 61.708984 L 22.501953 60.914062 L 23.294922 61.708984 C 24.239879 62.653828 25.657849 61.237813 24.712891 60.292969 L 23.914062 59.498047 L 24.708984 58.705078 C 25.354263 58.069966 24.889686 56.972383 23.984375 56.992188 C 23.725099 56.999747 23.477763 57.108591 23.296875 57.294922 L 22.501953 58.087891 L 21.707031 57.294922 C 21.525996 57.108969 21.280932 57.000125 21.021484 56.992188 z "
       transform="scale(0.26458334)"
       id="path846" />
  </g>
</svg>
