<?xml version="1.0" encoding="iso-8859-1"?>
<!-- Generator: Adobe Illustrator 21.0.0, SVG Export Plug-In . SVG Version: 6.00 Build 0)  -->
<svg version="1.1" id="Layer_1" xmlns="http://www.w3.org/2000/svg" xmlns:xlink="http://www.w3.org/1999/xlink" x="0px" y="0px"
	 viewBox="0 0 24 24" enable-background="new 0 0 24 24" xml:space="preserve">
<g>
	<path fill="#495965" d="M22.4384766,18.8837891L21,16.3671875V15.5c0-0.2763672-0.2236328-0.5-0.5-0.5h-17
		C3.2236328,15,3,15.2236328,3,15.5v0.8671875l-1.4375061,2.5166016C1.1943359,19.5268555,1,20.2587891,1,21
		c0,1.1030273,0.8974609,2,2,2h18c1.1025391,0,2-0.8969727,2-2C23,20.2587891,22.8056641,19.5268555,22.4384766,18.8837891z"/>
	<g>
		<linearGradient id="SVGID_1_" gradientUnits="userSpaceOnUse" x1="5.5469618" y1="15.7200413" x2="17.8361282" y2="20.8103809">
			<stop  offset="0" style="stop-color:#303C42;stop-opacity:0.2"/>
			<stop  offset="1" style="stop-color:#303C42;stop-opacity:0.02"/>
		</linearGradient>
		<path fill="url(#SVGID_1_)" d="M3,20c0-0.3935547,0.1035156-0.7817383,0.2978516-1.1225586l1.4384766-2.5180664
			C4.8017578,16.2446289,4.8554688,16.1240234,4.8974609,16h14.2050781
			c0.0419922,0.1245117,0.0957031,0.2451172,0.1611328,0.3598633l1.4384766,2.5166016C20.8964844,19.2172852,21,19.605957,21,20H3z"
			/>
	</g>
	<g>
		<linearGradient id="SVGID_2_" gradientUnits="userSpaceOnUse" x1="3.3738928" y1="18.0951309" x2="18.3514137" y2="24.2990227">
			<stop  offset="0" style="stop-color:#303C42;stop-opacity:0.2"/>
			<stop  offset="1" style="stop-color:#303C42;stop-opacity:0.02"/>
		</linearGradient>
		<path fill="url(#SVGID_2_)" d="M23,21H1c0,1.1030273,0.8974609,2,2,2h18C22.1025391,23,23,22.1030273,23,21z"/>
	</g>
	<path fill="#FFFFFF" d="M8.5,19h-1C7.2236328,19,7,19.2236328,7,19.5S7.2236328,20,7.5,20h1C8.7763672,20,9,19.7763672,9,19.5
		S8.7763672,19,8.5,19z M9.5,17h-1C8.2236328,17,8,17.2236328,8,17.5S8.2236328,18,8.5,18h1c0.2763672,0,0.5-0.2236328,0.5-0.5
		S9.7763672,17,9.5,17z M6.5,17h-1C5.2236328,17,5,17.2236328,5,17.5S5.2236328,18,5.5,18h1C6.7763672,18,7,17.7763672,7,17.5
		S6.7763672,17,6.5,17z M11.5,18h1c0.2763672,0,0.5-0.2236328,0.5-0.5S12.7763672,17,12.5,17h-1c-0.2763672,0-0.5,0.2236328-0.5,0.5
		S11.2236328,18,11.5,18z M5.5,19h-1C4.2236328,19,4,19.2236328,4,19.5S4.2236328,20,4.5,20h1C5.7763672,20,6,19.7763672,6,19.5
		S5.7763672,19,5.5,19z M19.5,19h-1c-0.2763672,0-0.5,0.2236328-0.5,0.5s0.2236328,0.5,0.5,0.5h1c0.2763672,0,0.5-0.2236328,0.5-0.5
		S19.7763672,19,19.5,19z M19,17.5c0-0.2763672-0.2236328-0.5-0.5-0.5h-1c-0.2763672,0-0.5,0.2236328-0.5,0.5s0.2236328,0.5,0.5,0.5
		h1C18.7763672,18,19,17.7763672,19,17.5z M16,17.5c0-0.2763672-0.2236328-0.5-0.5-0.5h-1c-0.2763672,0-0.5,0.2236328-0.5,0.5
		s0.2236328,0.5,0.5,0.5h1C15.7763672,18,16,17.7763672,16,17.5z M13.5,19h-3c-0.2763672,0-0.5,0.2236328-0.5,0.5
		s0.2236328,0.5,0.5,0.5h3c0.2763672,0,0.5-0.2236328,0.5-0.5S13.7763672,19,13.5,19z M16.5,19h-1
		c-0.2763672,0-0.5,0.2236328-0.5,0.5s0.2236328,0.5,0.5,0.5h1c0.2763672,0,0.5-0.2236328,0.5-0.5S16.7763672,19,16.5,19z"/>
	<g>
		<g opacity="0.16">
			<path fill="#303C42" d="M8.5,19.75h-1c-0.2319946,0-0.4182129-0.1608887-0.4747925-0.375
				C7.0144043,19.4159546,7,19.4556274,7,19.5C7,19.7763672,7.2236328,20,7.5,20h1C8.7763672,20,9,19.7763672,9,19.5
				c0-0.0443726-0.0144043-0.0840454-0.0252075-0.125C8.9182129,19.5891113,8.7319946,19.75,8.5,19.75z M9.9747925,17.375
				C9.9182129,17.5891113,9.7319946,17.75,9.5,17.75h-1c-0.2319946,0-0.4182129-0.1608887-0.4747925-0.375
				C8.0144043,17.4159546,8,17.4556274,8,17.5C8,17.7763672,8.2236328,18,8.5,18h1c0.2763672,0,0.5-0.2236328,0.5-0.5
				C10,17.4556274,9.9855957,17.4159546,9.9747925,17.375z M6.9747925,17.375C6.9182129,17.5891113,6.7319946,17.75,6.5,17.75h-1
				c-0.2319946,0-0.4182129-0.1608887-0.4747925-0.375C5.0144043,17.4159546,5,17.4556274,5,17.5C5,17.7763672,5.2236328,18,5.5,18
				h1C6.7763672,18,7,17.7763672,7,17.5C7,17.4556274,6.9855957,17.4159546,6.9747925,17.375z M5.5,19.75h-1
				c-0.2319946,0-0.4182129-0.1608887-0.4747925-0.375C4.0144043,19.4159546,4,19.4556274,4,19.5C4,19.7763672,4.2236328,20,4.5,20
				h1C5.7763672,20,6,19.7763672,6,19.5c0-0.0443726-0.0144043-0.0840454-0.0252075-0.125
				C5.9182129,19.5891113,5.7319946,19.75,5.5,19.75z M11.5,18h1c0.2763672,0,0.5-0.2236328,0.5-0.5
				c0-0.0443726-0.0144043-0.0840454-0.0252075-0.125C12.9182129,17.5891113,12.7319946,17.75,12.5,17.75h-1
				c-0.2319946,0-0.4182129-0.1608887-0.4747925-0.375C11.0144043,17.4159546,11,17.4556274,11,17.5
				C11,17.7763672,11.2236328,18,11.5,18z M19,17.5c0-0.0443726-0.0144043-0.0840454-0.0252075-0.125
				C18.9182129,17.5891113,18.7319946,17.75,18.5,17.75h-1c-0.2319946,0-0.4182129-0.1608887-0.4747925-0.375
				C17.0144043,17.4159546,17,17.4556274,17,17.5c0,0.2763672,0.2236328,0.5,0.5,0.5h1C18.7763672,18,19,17.7763672,19,17.5z
				 M13.5,19.75h-3c-0.2319946,0-0.4182129-0.1608887-0.4747925-0.375C10.0144043,19.4159546,10,19.4556274,10,19.5
				c0,0.2763672,0.2236328,0.5,0.5,0.5h3c0.2763672,0,0.5-0.2236328,0.5-0.5c0-0.0443726-0.0144043-0.0840454-0.0252075-0.125
				C13.9182129,19.5891113,13.7319946,19.75,13.5,19.75z M16.5,19.75h-1c-0.2319946,0-0.4182129-0.1608887-0.4747925-0.375
				C15.0144043,19.4159546,15,19.4556274,15,19.5c0,0.2763672,0.2236328,0.5,0.5,0.5h1c0.2763672,0,0.5-0.2236328,0.5-0.5
				c0-0.0443726-0.0144043-0.0840454-0.0252075-0.125C16.9182129,19.5891113,16.7319946,19.75,16.5,19.75z M19.9747925,19.375
				C19.9182129,19.5891113,19.7319946,19.75,19.5,19.75h-1c-0.2319946,0-0.4182129-0.1608887-0.4747925-0.375
				C18.0144043,19.4159546,18,19.4556274,18,19.5c0,0.2763672,0.2236328,0.5,0.5,0.5h1c0.2763672,0,0.5-0.2236328,0.5-0.5
				C20,19.4556274,19.9855957,19.4159546,19.9747925,19.375z M16,17.5c0-0.0443726-0.0144043-0.0840454-0.0252075-0.125
				C15.9182129,17.5891113,15.7319946,17.75,15.5,17.75h-1c-0.2319946,0-0.4182129-0.1608887-0.4747925-0.375
				C14.0144043,17.4159546,14,17.4556274,14,17.5c0,0.2763672,0.2236328,0.5,0.5,0.5h1C15.7763672,18,16,17.7763672,16,17.5z"/>
		</g>
	</g>
	<path fill="#303C42" d="M19.5,11h-15C3.2480469,11,3,11.7476559,3,13s0.2480469,2,1.5,2h15c1.2519531,0,1.5-0.7476559,1.5-2
		S20.7519531,11,19.5,11z"/>
	<g>
		<polygon fill="#303C42" points="3.5,13.5 2.8388672,13.5 2,15.5961914 2,16.5 1,16.5 1,15.4047852 2.1619141,12.5 3.5,12.5 		"/>
	</g>
	<path fill="#F2F2F2" d="M15,1H6C5.4477153,1,5,1.4477153,5,2v13h14V5L15,1z"/>
	<path opacity="0.2" fill="#FFFFFF" d="M15,1H6C5.4476929,1,5,1.4476929,5,2v0.25c0-0.5523071,0.4476929-1,1-1h9"/>
	<path fill="#E6E6E6" d="M15,1v3c0,0.5522847,0.4477148,1,1,1h3L15,1z"/>
	<path opacity="0.1" d="M16,4.75c-0.5523071,0-1-0.4477539-1-1V4c0,0.5522461,0.4476929,1,1,1h3l-0.25-0.25H16z"/>
	<g>
		<linearGradient id="SVGID_3_" gradientUnits="userSpaceOnUse" x1="15.2895508" y1="4.7029114" x2="15.2920628" y2="4.7054238">
			<stop  offset="0" style="stop-color:#000000;stop-opacity:0.1"/>
			<stop  offset="1" style="stop-color:#000000;stop-opacity:0"/>
		</linearGradient>
		<polygon fill="url(#SVGID_3_)" points="15.2901611,4.7030029 15.2891235,4.7030029 15.2922974,4.7061768 		"/>
	</g>
	<g>
		<linearGradient id="SVGID_4_" gradientUnits="userSpaceOnUse" x1="16.3427773" y1="4.0502362" x2="19.2768288" y2="6.9842882">
			<stop  offset="0" style="stop-color:#000000;stop-opacity:0.1"/>
			<stop  offset="1" style="stop-color:#000000;stop-opacity:0"/>
		</linearGradient>
		<path fill="url(#SVGID_4_)" d="M18.9989624,5H16c-0.2757568,0-0.5252686-0.1118164-0.7061768-0.2922974L19,8.4138184L18.9989624,5
			z"/>
	</g>
	<g id="XMLID_1306_">
		<rect x="8" y="7" fill="#039BE5" width="8" height="1"/>
	</g>
	<g id="XMLID_1305_">
		<rect x="8" y="10" fill="#039BE5" width="5" height="1"/>
	</g>
	<g>
		<linearGradient id="SVGID_5_" gradientUnits="userSpaceOnUse" x1="12" y1="11.0356026" x2="12" y2="14.8091717">
			<stop  offset="0" style="stop-color:#303C42;stop-opacity:0"/>
			<stop  offset="0.8848854" style="stop-color:#303C42;stop-opacity:0.7521526"/>
			<stop  offset="1" style="stop-color:#303C42;stop-opacity:0.85"/>
		</linearGradient>
		<path opacity="0.75" fill="url(#SVGID_5_)" d="M19.5,11h-15C3.2480469,11,3,11.7476559,3,13s0.2480469,2,1.5,2h15
			c1.2519531,0,1.5-0.7476559,1.5-2S20.7519531,11,19.5,11z"/>
	</g>
	<path fill="#F2F2F2" d="M10.5,16h3c0.2763672,0,0.5-0.2236328,0.5-0.5V15h-1h-2h-1v0.5C10,15.7763672,10.2236328,16,10.5,16z"/>
	<g>
		<g>
			<path opacity="0.16" fill="#303C42" d="M21,22.75H3c-1.0689697,0-1.9376831-0.8452759-1.9900513-1.9018555
				C1.0081177,20.8989258,1,20.9490967,1,21c0,1.1030273,0.8974609,2,2,2h18c1.1025391,0,2-0.8969727,2-2
				c0-0.0509033-0.0080566-0.1011963-0.0098877-0.1519775C22.9377441,21.9046631,22.0689697,22.75,21,22.75z"/>
		</g>
	</g>
	<path opacity="0.5" fill="#FFFFFF" fill-opacity="0.24" d="M1.0163574,20.75C1.0114136,20.8334351,1,20.9161987,1,21h22
		c0-0.0838013-0.0113525-0.1665649-0.0162964-0.25H1.0163574z"/>
	<linearGradient id="SVGID_6_" gradientUnits="userSpaceOnUse" x1="1.7594951" y1="8.7270079" x2="24.0768776" y2="19.1337738">
		<stop  offset="0" style="stop-color:#FFFFFF;stop-opacity:0.2"/>
		<stop  offset="1" style="stop-color:#FFFFFF;stop-opacity:0"/>
	</linearGradient>
	<path fill="url(#SVGID_6_)" d="M22.4384766,18.8837891L21,16.3671875V15.5c0-0.2763672-0.2236328-0.5-0.5-0.5h-1
		c1.2519531,0,1.5-0.7476807,1.5-2c0-1.2523804-0.2480469-2-1.5-2H19V5l-4-4H6C5.4476929,1,5,1.4476929,5,2v9H4.5
		c-1.0738525,0-1.4069824,0.5531616-1.4806519,1.5H2.1619263L1,15.4047852V16.5h1v-0.9038086L2.8388672,13.5h0.180481
		C3.0930176,14.4468994,3.4261475,15,4.5,15h-1C3.2236328,15,3,15.2236328,3,15.5v0.8671875l-1.4375061,2.5166016
		C1.1943359,19.5268555,1,20.2587891,1,21c0,1.1030273,0.8974609,2,2,2h18c1.1025391,0,2-0.8969727,2-2
		C23,20.2587891,22.8056641,19.5268555,22.4384766,18.8837891z"/>
</g>
<g>
</g>
<g>
</g>
<g>
</g>
<g>
</g>
<g>
</g>
<g>
</g>
<g>
</g>
<g>
</g>
<g>
</g>
<g>
</g>
<g>
</g>
<g>
</g>
<g>
</g>
<g>
</g>
<g>
</g>
</svg>
