<?xml version="1.0" encoding="UTF-8" standalone="no"?> <svg xmlns="http://www.w3.org/2000/svg" viewBox="0 0 64 64"><g id="book-pencil-light_bulb-copywriting-editing-writing" data-name="book-pencil-light bulb-copywriting-editing-writing"><path d="M57,17V55H7V17H28a4,4,0,0,1,4,4,4,4,0,0,1,4-4Z" style="fill:#f7d4aa"/><polygon points="7 19 7 55 5 55 3 55 3 19 7 19" style="fill:#d18b61"/><polygon points="61 19 61 55 59 55 57 55 57 53.56 57 19 61 19" style="fill:#d18b61"/><path d="M37,35v2a5,5,0,0,1-10,0V35Z" style="fill:#acabb1"/><path d="M34,32H26V29.21A10.97,10.97,0,0,1,21,20a10.685,10.685,0,0,1,.39-2.9,11,11,0,0,1,21.22,0A10.685,10.685,0,0,1,43,20a10.97,10.97,0,0,1-5,9.21V32Z" style="fill:#fae058"/><path d="M48,59H45V51h3a4,4,0,1,1,0,8Z" style="fill:#e9e9ea"/><polygon points="18 59 12 55 18 51 20 53 18 55 20 57 18 59" style="fill:#e9e9ea"/><polygon points="41 59 18 59 20 57 18 55 20 53 18 51 41 51 41 59" style="fill:#dd636e"/><rect x="41" y="51" width="4" height="8" style="fill:#365e7d"/><path d="M8,18H19V16H7a1,1,0,0,0-1,1v1H3a1,1,0,0,0-1,1V55a1,1,0,0,0,1,1h7V54H8ZM6,54H4V20H6Z"/><path d="M61,18H58V17a1,1,0,0,0-1-1H45v2H56V54H54v2h7a1,1,0,0,0,1-1V19A1,1,0,0,0,61,18ZM60,54H58V20h2Z"/><path d="M48,50H18a.967.967,0,0,0-.55.17l-6,4a.99.99,0,0,0,0,1.66l6,4A.967.967,0,0,0,18,60H48a5,5,0,0,0,0-10ZM17.29,55.71,18.59,57l-.72.71L13.8,55l4.07-2.71.72.71-1.3,1.29A1.008,1.008,0,0,0,17.29,55.71ZM40,58H20.41l.3-.29a1.008,1.008,0,0,0,0-1.42L19.41,55l1.3-1.29a1.008,1.008,0,0,0,0-1.42l-.3-.29H40Zm4,0H42V52h2Zm4,0H46V52h2a3,3,0,0,1,0,6Z"/><rect x="14" y="19" width="4" height="2"/><rect x="46" y="19" width="4" height="2"/><path d="M32,8a12,12,0,0,0-7,21.74V32a1,1,0,0,0,1,1H38a1,1,0,0,0,1-1V29.74A12,12,0,0,0,32,8Zm5.45,20.38a1,1,0,0,0-.45.83V31H35V25H33v6H31V25H29v6H27V29.21a1,1,0,0,0-.45-.83,10,10,0,1,1,10.9,0Z"/><path d="M26,20a6.006,6.006,0,0,1,6-6V12a8.009,8.009,0,0,0-8,8Z"/><path d="M25,34v2h1v1a6,6,0,0,0,12,0V36h1V34Zm11,3a4,4,0,0,1-8,0V36h8Z"/><rect x="31" y="2" width="2" height="4"/><rect x="19.687" y="6.686" width="2" height="4" transform="translate(-0.084 17.17) rotate(-44.995)"/><rect x="41.314" y="7.686" width="4" height="2" transform="translate(6.544 33.171) rotate(-45)"/><rect x="10" y="29" width="2" height="2"/><rect x="14" y="29" width="6" height="2"/><rect x="10" y="33" width="12" height="2"/><rect x="10" y="37" width="12" height="2"/><rect x="10" y="41" width="14" height="2"/><rect x="10" y="45" width="18" height="2"/><rect x="52" y="29" width="2" height="2"/><rect x="44" y="29" width="6" height="2"/><rect x="42" y="33" width="12" height="2"/><rect x="42" y="37" width="12" height="2"/><rect x="40" y="41" width="14" height="2"/><rect x="36" y="45" width="18" height="2"/><rect x="10" y="25" width="6" height="2"/><rect x="48" y="25" width="6" height="2"/></g></svg>